M48
; DRILL file {KiCad (5.1.2-1)-1} date Monday, 11 May 2020 at 16:20:49
; FORMAT={-:-/ absolute / metric / decimal}
; #@! TF.CreationDate,2020-05-11T16:20:49-05:00
; #@! TF.GenerationSoftware,Kicad,Pcbnew,(5.1.2-1)-1
; #@! TF.FileFunction,Plated,1,2,PTH
FMAT,2
METRIC
T1C0.750
T2C0.800
T3C0.900
T4C1.000
T5C1.100
T6C1.200
T7C1.500
%
G90
G05
T1
X78.25Y-254.5
X78.25Y-259.58
X78.25Y-254.5
X78.25Y-259.58
X79.0Y-267.65
X80.27Y-267.65
X81.54Y-267.65
X79.0Y-267.65
X80.27Y-267.65
X81.54Y-267.65
T2
X32.0Y-258.0
X34.0Y-258.0
X54.0Y-243.88
X54.0Y-251.5
X38.63Y-244.0
X38.63Y-251.62
X41.17Y-244.0
X41.17Y-251.62
X43.71Y-244.0
X43.71Y-251.62
X46.25Y-244.0
X46.25Y-251.62
X71.0Y-243.88
X71.0Y-251.5
X71.0Y-254.5
X71.0Y-262.12
X30.25Y-249.0
X32.75Y-249.0
X51.0Y-254.5
X51.0Y-262.12
X78.25Y-243.88
X78.25Y-251.5
X25.5Y-273.88
X25.5Y-281.5
X32.0Y-258.0
X34.0Y-258.0
X51.0Y-243.88
X51.0Y-251.5
X58.75Y-251.63
X58.75Y-259.25
X61.29Y-251.63
X61.29Y-259.25
X63.83Y-251.63
X63.83Y-259.25
X66.37Y-251.63
X66.37Y-259.25
X30.25Y-249.0
X32.75Y-249.0
X84.25Y-254.5
X84.25Y-262.12
X15.19Y-244.42
X15.19Y-254.58
X22.81Y-244.42
X22.81Y-254.58
X71.0Y-243.88
X71.0Y-251.5
X84.25Y-243.88
X84.25Y-251.5
X54.0Y-254.5
X54.0Y-262.12
X32.0Y-265.5
X34.0Y-265.5
X54.0Y-254.5
X54.0Y-262.12
X35.98Y-219.0
X35.98Y-226.62
X38.52Y-219.0
X38.52Y-226.62
X41.06Y-219.0
X41.06Y-226.62
X43.6Y-219.0
X43.6Y-226.62
X46.14Y-219.0
X46.14Y-226.62
X48.68Y-219.0
X48.68Y-226.62
X51.22Y-219.0
X51.22Y-226.62
X53.76Y-219.0
X53.76Y-226.62
X56.3Y-219.0
X56.3Y-226.62
X58.84Y-219.0
X58.84Y-226.62
X61.38Y-219.0
X61.38Y-226.62
X63.92Y-219.0
X63.92Y-226.62
X66.46Y-219.0
X66.46Y-226.62
X69.0Y-219.0
X69.0Y-226.62
X35.98Y-211.38
X35.98Y-219.0
X38.52Y-211.38
X38.52Y-219.0
X41.06Y-211.38
X41.06Y-219.0
X43.6Y-211.38
X43.6Y-219.0
X46.14Y-211.38
X46.14Y-219.0
X48.68Y-211.38
X48.68Y-219.0
X51.22Y-211.38
X51.22Y-219.0
X53.76Y-211.38
X53.76Y-219.0
X56.3Y-211.38
X56.3Y-219.0
X58.84Y-211.38
X58.84Y-219.0
X61.38Y-211.38
X61.38Y-219.0
X63.92Y-211.38
X63.92Y-219.0
X66.46Y-211.38
X66.46Y-219.0
X69.0Y-211.38
X69.0Y-219.0
X84.25Y-254.5
X84.25Y-262.12
X73.75Y-246.25
X73.75Y-248.75
X81.25Y-254.5
X81.25Y-262.12
X58.75Y-244.0
X58.75Y-251.62
X61.29Y-244.0
X61.29Y-251.62
X63.83Y-244.0
X63.83Y-251.62
X66.37Y-244.0
X66.37Y-251.62
X24.5Y-269.25
X26.5Y-269.25
X32.0Y-265.5
X34.0Y-265.5
X73.75Y-257.0
X73.75Y-259.5
X13.92Y-245.69
X13.92Y-253.31
X24.08Y-245.69
X24.08Y-253.31
X71.0Y-254.5
X71.0Y-262.12
X24.5Y-269.25
X26.5Y-269.25
X51.0Y-243.88
X51.0Y-251.5
X54.0Y-243.88
X54.0Y-251.5
X73.75Y-246.25
X73.75Y-248.75
X38.63Y-251.63
X38.63Y-259.25
X41.17Y-251.63
X41.17Y-259.25
X43.71Y-251.63
X43.71Y-259.25
X46.25Y-251.63
X46.25Y-259.25
X81.25Y-243.88
X81.25Y-251.5
X73.75Y-257.0
X73.75Y-259.5
X81.25Y-243.88
X81.25Y-251.5
X78.25Y-243.88
X78.25Y-251.5
X51.0Y-254.5
X51.0Y-262.12
X84.25Y-243.88
X84.25Y-251.5
X81.25Y-254.5
X81.25Y-262.12
X24.5Y-261.75
X26.5Y-261.75
X24.5Y-261.75
X26.5Y-261.75
T3
X52.5Y-86.73
X52.5Y-89.27
X41.569Y-39.584
X42.839Y-41.784
X64.35Y-33.48
X64.35Y-36.02
X18.23Y-121.0
X20.77Y-121.0
X62.07Y-27.74
X63.34Y-29.94
X18.5Y-264.46
X18.5Y-267.0
X68.399Y-93.53
X69.669Y-91.33
X18.5Y-264.46
X18.5Y-267.0
X57.334Y-23.819
X59.534Y-25.089
X19.0Y-31.5
X21.5Y-36.5
X24.0Y-31.5
X19.0Y-166.5
X21.5Y-161.5
X24.0Y-166.5
X22.83Y-103.831
X25.03Y-105.101
X51.23Y-22.9
X53.77Y-22.9
X79.988Y-105.169
X82.188Y-103.899
X46.0Y-264.23
X46.0Y-266.77
X45.484Y-25.156
X47.684Y-23.886
X35.331Y-91.33
X36.601Y-93.53
X41.636Y-29.934
X42.906Y-27.734
X84.23Y-121.0
X86.77Y-121.0
X59.0Y-264.23
X59.0Y-266.77
X40.65Y-33.48
X40.65Y-36.02
X19.0Y-31.5
X21.5Y-26.5
X24.0Y-31.5
X19.0Y-166.5
X21.5Y-171.5
X24.0Y-166.5
X62.161Y-41.784
X63.431Y-39.584
T4
X91.5Y-244.0
X91.5Y-246.54
X91.5Y-249.08
X91.5Y-251.62
X91.5Y-254.16
X91.5Y-256.7
X91.5Y-244.0
X91.5Y-246.54
X91.5Y-249.08
X91.5Y-251.62
X91.5Y-254.16
X91.5Y-256.7
T5
X18.5Y-273.5
X18.5Y-276.5
X18.5Y-279.5
X80.25Y-273.88
X80.25Y-281.5
X83.5Y-31.75
X83.5Y-34.75
X83.5Y-37.75
X80.25Y-273.88
X80.25Y-281.5
X81.25Y-163.75
X81.25Y-170.25
X85.75Y-163.75
X85.75Y-170.25
X83.5Y-31.75
X83.5Y-34.75
X83.5Y-37.75
X81.25Y-163.75
X81.25Y-170.25
X85.75Y-163.75
X85.75Y-170.25
X18.5Y-273.5
X18.5Y-276.5
X18.5Y-279.5
T6
X86.5Y-274.0
X90.31Y-274.0
X86.5Y-274.0
X90.31Y-274.0
X86.5Y-282.0
X90.31Y-282.0
X86.5Y-282.0
X90.31Y-282.0
T7
X46.0Y-270.52
X46.0Y-273.62
X46.0Y-281.92
X59.0Y-270.52
X59.0Y-273.62
X59.0Y-281.92
X72.0Y-270.52
X72.0Y-273.62
X72.0Y-281.92
X72.0Y-270.52
X72.0Y-273.62
X72.0Y-281.92
X59.0Y-270.52
X59.0Y-273.62
X59.0Y-281.92
X46.0Y-270.52
X46.0Y-273.62
X46.0Y-281.92
X33.0Y-270.52
X33.0Y-273.62
X33.0Y-281.92
X33.0Y-270.52
X33.0Y-273.62
X33.0Y-281.92
T2
G00X19.25Y-270.65
M15
G01X17.75Y-270.65
M16
G05
G00X19.25Y-282.35
M15
G01X17.75Y-282.35
M16
G05
G00X19.25Y-270.65
M15
G01X17.75Y-270.65
M16
G05
G00X19.25Y-282.35
M15
G01X17.75Y-282.35
M16
G05
G00X82.75Y-28.9
M15
G01X84.25Y-28.9
M16
G05
G00X82.75Y-40.6
M15
G01X84.25Y-40.6
M16
G05
G00X82.75Y-28.9
M15
G01X84.25Y-28.9
M16
G05
G00X82.75Y-40.6
M15
G01X84.25Y-40.6
M16
G05
T4
G00X35.75Y-13.0
M15
G01X36.75Y-13.0
M16
G05
G00X49.75Y-59.5
M15
G01X50.75Y-59.5
M16
G05
G00X54.25Y-59.5
M15
G01X55.25Y-59.5
M16
G05
G00X68.25Y-13.0
M15
G01X69.25Y-13.0
M16
G05
G00X36.75Y-13.0
M15
G01X35.75Y-13.0
M16
G05
G00X50.75Y-59.5
M15
G01X49.75Y-59.5
M16
G05
G00X55.25Y-59.5
M15
G01X54.25Y-59.5
M16
G05
G00X69.25Y-13.0
M15
G01X68.25Y-13.0
M16
G05
T0
M30
